<?xml version="1.0" standalone="no"?>
<!DOCTYPE svg PUBLIC "-//W3C//DTD SVG 1.1//EN" "http://www.w3.org/Graphics/SVG/1.1/DTD/svg11.dtd" >
<svg xmlns="http://www.w3.org/2000/svg">
<metadata>Generated by IcoMoon</metadata>
<defs>
<font id="icomoon" horiz-adv-x="1024">
<font-face units-per-em="1024" ascent="960" descent="-64" />
<missing-glyph horiz-adv-x="1024" />
<glyph unicode="&#x20;" horiz-adv-x="512" d="" />
<glyph unicode="&#xe900;" glyph-name="account" d="M714.057 406.4c59.429 53.486 95.086 130.743 95.086 219.886 0 166.4-130.743 297.143-297.143 297.143s-297.143-130.743-297.143-297.143c0-89.143 35.657-166.4 101.029-219.886-160.457-65.371-279.314-213.943-279.314-374.4 0-35.657 23.771-59.429 59.429-59.429h832c35.657 0 59.429 23.771 59.429 59.429 0 142.629-106.971 303.086-273.371 374.4zM333.714 626.286c0 101.029 77.257 178.286 178.286 178.286s178.286-77.257 178.286-178.286c0-101.029-77.257-178.286-178.286-178.286s-178.286 77.257-178.286 178.286zM161.371 91.429c17.829 53.486 53.486 106.971 106.971 148.571l118.857-148.571h-225.829zM375.314 299.429c41.6 17.829 89.143 29.714 136.686 29.714 53.486 0 95.086-11.886 142.629-23.771l-142.629-178.286-136.686 172.343zM636.8 91.429l118.857 154.514c53.486-41.6 89.143-95.086 106.971-154.514h-225.829z" />
<glyph unicode="&#xe901;" glyph-name="add-circle" d="M731.429 484.571h-182.857v182.857c0 20.187-16.347 36.571-36.571 36.571s-36.571-16.384-36.571-36.571v-182.857h-182.857c-20.224 0-36.571-16.384-36.571-36.571s16.347-36.571 36.571-36.571h182.857v-182.857c0-20.187 16.347-36.571 36.571-36.571s36.571 16.384 36.571 36.571v182.857h182.857c20.224 0 36.571 16.384 36.571 36.571s-16.347 36.571-36.571 36.571zM512 0c247.424 0 448 200.576 448 448s-200.576 448-448 448c-247.424 0-448-200.576-448-448s200.576-448 448-448zM512-64c-282.77 0-512 229.23-512 512s229.23 512 512 512c282.77 0 512-229.23 512-512s-229.23-512-512-512z" />
<glyph unicode="&#xe902;" glyph-name="add" d="M585.143 521.143v292.571h-146.286v-292.571h-292.571v-146.286h292.571v-292.571h146.286v292.571h292.571v146.286h-292.571z" />
<glyph unicode="&#xe903;" glyph-name="arrow-down-s" d="M512 292.841l-181.138 181.138c-14.629 14.629-37.319 14.163-51.601-0.119-13.864-13.864-14.335-37.384-0.119-51.601l207.117-207.117c7.294-7.294 16.592-10.836 25.853-10.783 9.14 0.258 18.541 3.695 25.629 10.783l207.117 207.117c14.629 14.629 14.163 37.319-0.119 51.601-13.864 13.864-37.384 14.335-51.601 0.119l-181.138-181.138z" />
<glyph unicode="&#xe904;" glyph-name="arrow-down" d="M328.887 594.066l183.15-292.133 183.077 292.133z" />
<glyph unicode="&#xe905;" glyph-name="arrow-up" d="M328.887 301.934l183.15 292.133 183.077-292.133z" />
<glyph unicode="&#xe906;" glyph-name="categories" d="M402.286 886.857h-274.286c-32.914 0-54.857-21.943-54.857-54.857v-274.286c0-32.914 21.943-54.857 54.857-54.857h274.286c32.914 0 54.857 21.943 54.857 54.857v274.286c0 32.914-21.943 54.857-54.857 54.857zM347.429 612.571h-164.571v164.571h164.571v-164.571zM896 886.857h-274.286c-32.914 0-54.857-21.943-54.857-54.857v-274.286c0-32.914 21.943-54.857 54.857-54.857h274.286c32.914 0 54.857 21.943 54.857 54.857v274.286c0 32.914-21.943 54.857-54.857 54.857zM841.143 612.571h-164.571v164.571h164.571v-164.571zM402.286 393.143h-274.286c-32.914 0-54.857-21.943-54.857-54.857v-274.286c0-32.914 21.943-54.857 54.857-54.857h274.286c32.914 0 54.857 21.943 54.857 54.857v274.286c0 32.914-21.943 54.857-54.857 54.857zM347.429 118.857h-164.571v164.571h164.571v-164.571zM896 393.143h-274.286c-32.914 0-54.857-21.943-54.857-54.857v-274.286c0-32.914 21.943-54.857 54.857-54.857h274.286c32.914 0 54.857 21.943 54.857 54.857v274.286c0 32.914-21.943 54.857-54.857 54.857zM841.143 118.857h-164.571v164.571h164.571v-164.571z" />
<glyph unicode="&#xe907;" glyph-name="clock" d="M67.556 448c0-245.333 198.667-444.444 444-444.444 245.778 0 444.889 199.111 444.889 444.444s-199.111 444.444-444.889 444.444c-245.333 0-444-199.111-444-444.444zM156.444 448c0 196.444 159.111 355.556 355.556 355.556s355.556-159.111 355.556-355.556c0-196.444-159.111-355.556-355.556-355.556s-355.556 159.111-355.556 355.556zM534.222 670.222h-66.667v-266.667l233.333-140 33.333 54.667-200 118.667v233.333z" />
<glyph unicode="&#xe908;" glyph-name="close" d="M888.241 185.744l-263.058 264.060 263.659 260.652c10.827 10.827 10.827 28.471 0 39.298l-74.987 75.388c-5.213 5.213-12.231 8.020-19.649 8.020s-14.436-3.008-19.649-8.020l-262.456-259.85-262.857 259.649c-5.213 5.213-12.231 8.020-19.649 8.020s-14.436-3.008-19.649-8.020l-74.787-75.388c-10.827-10.827-10.827-28.471 0-39.298l263.659-260.652-262.857-263.86c-5.213-5.213-8.221-12.231-8.221-19.649s2.807-14.436 8.221-19.649l74.987-75.388c5.414-5.414 12.431-8.221 19.649-8.221 7.018 0 14.236 2.607 19.649 8.221l261.855 263.058 262.055-262.857c5.414-5.414 12.431-8.221 19.649-8.221 7.018 0 14.236 2.607 19.649 8.221l74.987 75.388c5.213 5.213 8.221 12.231 8.221 19.649-0.201 7.218-3.208 14.236-8.421 19.449z" />
<glyph unicode="&#xe909;" glyph-name="contract" d="M888.163 960h-564.245c-37.616 0-62.694-25.078-62.694-62.694v-689.633c0-37.616 25.078-62.694 62.694-62.694h564.245c37.616 0 62.694 25.078 62.694 62.694v689.633c0 37.616-25.078 62.694-62.694 62.694zM825.469 270.367h-438.857v564.245h438.857v-564.245zM637.388 82.286h-438.857v564.245c0 37.616-25.078 62.694-62.694 62.694s-62.694-25.078-62.694-62.694v-626.939c0-37.616 25.078-62.694 62.694-62.694h501.551c37.616 0 62.694 25.078 62.694 62.694s-25.078 62.694-62.694 62.694zM512 646.531h188.082c37.616 0 62.694 25.078 62.694 62.694s-25.078 62.694-62.694 62.694h-188.082c-37.616 0-62.694-25.078-62.694-62.694s25.078-62.694 62.694-62.694zM512 458.449h188.082c37.616 0 62.694 25.078 62.694 62.694s-25.078 62.694-62.694 62.694h-188.082c-37.616 0-62.694-25.078-62.694-62.694s25.078-62.694 62.694-62.694z" />
<glyph unicode="&#xe90a;" glyph-name="customers" d="M668.735 698.776h-188.082c-17.304 0-31.347-14.043-31.347-31.347v-62.694c0-17.304 14.043-31.347 31.347-31.347h188.082c17.304 0 31.347 14.043 31.347 31.347v62.694c0 17.304-14.043 31.347-31.347 31.347v0zM825.469 352.016c0-17.304-14.043-31.347-31.347-31.347h-438.857c-17.304 0-31.347 14.043-31.347 31.347v440.801c0 17.304 14.043 31.347 31.347 31.347h438.857c17.304 0 31.347-14.043 31.347-31.347v-440.801zM825.469 103.184c0-17.304-14.043-31.347-31.347-31.347h-533.525c-34.294 0-62.067 27.773-62.067 62.067v1.254c0 34.294 27.773 62.067 62.067 62.067h533.525c17.304 0 31.347-14.043 31.347-31.347v-62.694zM888.163 949.551h-689.633c-69.277 0-125.388-56.111-125.388-125.388v-752.327c0-69.214 56.111-125.388 125.388-125.388h689.633c34.607 0 62.694 28.087 62.694 62.694v877.714c0 34.607-28.087 62.694-62.694 62.694v0z" />
<glyph unicode="&#xe90b;" glyph-name="data" d="M182.857 886.857v-768h768v-109.714h-822.857c-30.336 0-54.857 24.576-54.857 54.857v822.857h109.714zM374.857 228.571h-54.857c-15.141 0-27.429 12.288-27.429 27.429v274.286c0 15.141 12.288 27.429 27.429 27.429h54.857c15.141 0 27.429-12.288 27.429-27.429v-274.286c0-15.141-12.288-27.429-27.429-27.429zM539.429 228.571h-54.857c-15.141 0-27.429 12.288-27.429 27.429v493.714c0 15.141 12.288 27.429 27.429 27.429h54.857c15.141 0 27.429-12.288 27.429-27.429v-493.714c0-15.141-12.288-27.429-27.429-27.429zM704 228.571h-54.857c-15.141 0-27.429 12.288-27.429 27.429v164.571c0 15.141 12.288 27.429 27.429 27.429h54.857c15.141 0 27.429-12.288 27.429-27.429v-164.571c0-15.141-12.288-27.429-27.429-27.429zM868.571 228.571h-54.857c-15.141 0-27.429 12.288-27.429 27.429v384c0 15.141 12.288 27.429 27.429 27.429h54.857c15.141 0 27.429-12.288 27.429-27.429v-384c0-15.141-12.288-27.429-27.429-27.429z" />
<glyph unicode="&#xe90c;" glyph-name="dropdown" d="M254.46 567.022h517.36c13.045 0.109 25.122-5.871 31.832-15.783 6.46-10.24 5.836-22.828-1.467-32.522l-258.68-350.099c-15.261-17.585-45.47-17.585-60.605 0l-258.056 350.099c-3.901 4.888-5.742 10.868-5.368 16.848 0 5.434 1.467 10.759 4.151 15.783 6.71 9.393 18.163 15.264 30.833 15.674z" />
<glyph unicode="&#xe90d;" glyph-name="edit" d="M938.667 821.333c0-29.455-23.878-53.333-53.333-53.333s-53.333 23.878-53.333 53.333c0 29.455 23.878 53.333 53.333 53.333s53.333-23.878 53.333-53.333zM741.333 757.333l-442.667-442.667c-21.333-21.333-21.333-53.333 0-74.667s53.333-21.333 74.667 0l298.667 298.667v-410.667h-480v533.333h266.667c32 0 53.333 21.333 53.333 53.333s-21.333 53.333-53.333 53.333h-314.667c-32 0-58.667-26.667-58.667-58.667v-629.333c0-32 26.667-58.667 58.667-58.667h576c32 0 58.667 26.667 58.667 58.667v565.333l37.333 37.333c21.333 21.333 21.333 53.333 0 74.667s-53.333 21.333-74.667 0z" />
<glyph unicode="&#xe90e;" glyph-name="employees" d="M896 886.857h-768c-70.4 0-128-57.6-128-128v-576c0-70.4 57.6-128 128-128h768c70.4 0 128 57.6 128 128v576c0 70.4-57.6 128-128 128zM896 182.857h-768v576h768v-576zM256 438.857h192c38.4 0 64 25.6 64 64v128c0 38.4-25.6 64-64 64h-192c-38.4 0-64-25.6-64-64v-128c0-38.4 25.6-64 64-64zM640 502.857h128c38.4 0 64 25.6 64 64s-25.6 64-64 64h-128c-38.4 0-64-25.6-64-64s25.6-64 64-64zM256 246.857h512c38.4 0 64 25.6 64 64s-25.6 64-64 64h-512c-38.4 0-64-25.6-64-64s25.6-64 64-64z" />
<glyph unicode="&#xe90f;" glyph-name="export" d="M810.667 149.084c0 0.1-597.333 0.249-597.333 0.249 0.199 0 0 248.889 0 248.889 0 27.477-22.3 49.778-49.778 49.778s-49.778-22.3-49.778-49.778v-249.138c0-54.507 44.8-99.307 99.556-99.307h597.333c55.054 0 99.556 44.302 99.556 99.307v249.138c0 27.477-22.3 49.778-49.778 49.778s-49.778-22.3-49.778-49.778v-249.138zM561.678 684.544l114.24-123.548c19.413-19.662 50.923-19.662 70.386 0 19.413 19.762 19.413 51.669 0 71.381l-181.54 191.744c-14.137 14.236-32.853 22.101-52.764 22.101s-38.727-7.865-52.764-22.101l-181.54-191.744c-19.413-19.712-19.413-51.62 0-71.381 19.413-19.662 50.923-19.662 70.386 0l114.14 123.449v-286.222c0-27.378 22.201-49.778 49.778-49.778 27.378 0 49.678 22.3 49.678 49.778v286.322z" />
<glyph unicode="&#xe910;" glyph-name="eye" d="M512 789.333c-278.997 0-456.363-307.2-463.787-320.299l-11.947-21.12 12.032-21.077c7.467-13.099 186.112-320.171 463.701-320.171 276.181 0 456.107 306.987 463.616 320.043l12.245 21.205-12.16 21.248c-7.467 13.099-186.112 320.171-463.701 320.171zM512 192c-190.208 0-333.355 191.36-376.32 256.128 42.581 64.768 184.491 255.872 376.32 255.872 190.037 0 333.099-191.019 376.192-255.915-43.349-64.939-187.136-256.085-376.192-256.085zM512 618.667c-94.123 0-170.667-76.544-170.667-170.667s76.544-170.667 170.667-170.667c94.123 0 170.667 76.544 170.667 170.667s-76.544 170.667-170.667 170.667zM512 362.667c-47.061 0-85.333 38.272-85.333 85.333s38.272 85.333 85.333 85.333c47.061 0 85.333-38.272 85.333-85.333s-38.272-85.333-85.333-85.333z" />
<glyph unicode="&#xe911;" glyph-name="help-center" d="M512-64.032c-282.816 0-512 229.248-512 512 0 282.816 229.184 512.064 512 512.064 282.752 0 512-229.248 512-512.064 0-282.752-229.248-512-512-512zM512-0.032c95.296 0 183.232 30.336 255.936 81.088l-126.272 147.392c-38.208-22.592-82.176-36.352-129.664-36.352-47.552 0-91.584 13.824-129.664 36.352l-126.272-147.392c72.64-50.752 160.576-81.088 255.936-81.088zM704 447.968c0 106.048-86.016 192-192 192-106.048 0-192-85.952-192-192 0-105.984 85.952-191.936 192-191.936 105.984 0 192 85.952 192 191.936zM64 447.968c0-128.96 55.232-244.288 142.464-326.080l124.352 145.28c-46.208 46.4-74.816 110.272-74.816 180.8 0 61.76 22.72 117.568 59.072 161.792l-126.208 147.328c-76.992-80.448-124.864-188.928-124.864-309.12zM512 896.032c-104.128 0-198.656-36.992-274.752-96.512l124.352-145.28c42.24 30.912 94.016 49.664 150.4 49.664s108.032-18.752 150.4-49.664l124.352 145.28c-76.096 59.52-170.624 96.512-274.752 96.512zM835.072 757.088l-126.208-147.328c36.352-44.224 59.136-100.032 59.136-161.792 0-70.592-28.608-134.464-74.816-180.8l124.352-145.28c87.168 81.728 142.464 197.12 142.464 326.080 0 120.192-47.936 228.672-124.928 309.12z" />
<glyph unicode="&#xe912;" glyph-name="home" d="M574.364 320v-256h-128v256h128zM510.364 896c-12.8 0-25.6-6.4-38.4-12.8l-448-320c-25.6-19.2-32-57.6-12.8-89.6 12.8-19.2 32-25.6 51.2-25.6 12.8 0 25.6 6.4 38.4 12.8l25.6 19.2v-480c0-38.4 25.6-64 64-64h640c38.4 0 64 25.6 64 64v480l25.6-19.2c12.8-6.4 25.6-12.8 38.4-12.8 19.2 0 38.4 6.4 51.2 25.6 19.2 25.6 12.8 70.4-12.8 89.6l-448 320c-12.8 6.4-25.6 12.8-38.4 12.8v0zM254.364 64v505.6l256 185.6 256-185.6v-505.6h-64v320c0 38.4-25.6 64-64 64h-256c-38.4 0-64-25.6-64-64v-320h-64z" />
<glyph unicode="&#xe913;" glyph-name="id" d="M280.576 640.512h116.736l27.648 173.056h67.584l-27.648-173.056h155.648l27.648 173.056h67.584l-27.648-173.056h103.424l-9.216-61.44h-103.424l-41.984-263.168h115.712l-9.216-61.44h-115.712l-27.648-172.032h-68.608l27.648 172.032h-154.624l-27.648-172.032h-68.608l27.648 172.032h-103.424l9.216 61.44h103.424l41.984 263.168h-115.712l9.216 61.44zM413.696 315.904h154.624l41.984 263.168h-154.624l-41.984-263.168z" />
<glyph unicode="&#xe914;" glyph-name="import" d="M810.667 149.084c0 0.1-597.333 0.249-597.333 0.249 0.199 0 0 248.889 0 248.889 0 27.477-22.3 49.778-49.778 49.778s-49.778-22.3-49.778-49.778v-249.138c0-54.507 44.8-99.307 99.556-99.307h597.333c55.054 0 99.556 44.302 99.556 99.307v249.138c0 27.477-22.3 49.778-49.778 49.778s-49.778-22.3-49.778-49.778v-249.138zM561.678 510.123l114.24 123.548c19.413 19.662 50.923 19.662 70.386 0 19.413-19.762 19.413-51.669 0-71.381l-181.54-191.744c-14.137-14.236-32.853-22.101-52.764-22.101s-38.727 7.865-52.764 22.101l-181.54 191.744c-19.413 19.712-19.413 51.62 0 71.381 19.413 19.662 50.923 19.662 70.386 0l114.14-123.449v286.222c0 27.378 22.201 49.778 49.778 49.778 27.378 0 49.678-22.3 49.678-49.778v-286.322z" />
<glyph unicode="&#xe915;" glyph-name="inventory" d="M832 0h-640c-70.4 0-128 57.6-128 128v640c0 70.4 57.6 128 128 128h640c70.4 0 128-57.6 128-128v-640c0-70.4-57.6-128-128-128zM192 128h640v640h-640v-640zM640 192c-38.4 0-64 25.6-64 64v384c0 38.4 25.6 64 64 64s64-25.6 64-64v-384c0-38.4-25.6-64-64-64zM384 192c-38.4 0-64 25.6-64 64v384c0 38.4 25.6 64 64 64s64-25.6 64-64v-384c0-38.4-25.6-64-64-64z" />
<glyph unicode="&#xe916;" glyph-name="minus" d="M146.286 484.571h731.429v-151.058h-731.429v151.058z" />
<glyph unicode="&#xe917;" glyph-name="more" d="M204.8 448c0-56.554-45.846-102.4-102.4-102.4s-102.4 45.846-102.4 102.4c0 56.554 45.846 102.4 102.4 102.4s102.4-45.846 102.4-102.4zM614.4 448c0-56.554-45.846-102.4-102.4-102.4s-102.4 45.846-102.4 102.4c0 56.554 45.846 102.4 102.4 102.4s102.4-45.846 102.4-102.4zM1024 448c0-56.554-45.846-102.4-102.4-102.4s-102.4 45.846-102.4 102.4c0 56.554 45.846 102.4 102.4 102.4s102.4-45.846 102.4-102.4z" />
<glyph unicode="&#xe918;" glyph-name="news" d="M921.573 72.592h-819.145c-18.84 0-34.131 15.291-34.131 34.131s15.291 34.131 34.131 34.131h34.131v477.835c0 150.791 122.189 273.048 273.048 273.048h34.131c0 37.681 30.513 68.262 68.262 68.262 37.681 0 68.262-30.581 68.262-68.262h34.131c150.791 0 273.048-122.257 273.048-273.048v-477.835h34.131c18.772 0 34.131-15.291 34.131-34.131s-15.359-34.131-34.131-34.131zM819.18 618.621c0 113.11-91.744 204.786-204.786 204.786h-204.786c-113.042 0-204.786-91.676-204.786-204.786v-477.835h614.359v477.835zM607.43 4.262c-14.13-39.592-51.060-68.262-95.43-68.262-44.439 0-81.3 28.738-95.499 68.262h190.929z" />
<glyph unicode="&#xe919;" glyph-name="pen" d="M886.126 589.030l-461.759-461.652c-26.4-24.213-58.027-42.133-92.373-52.267l-204-51.2c-11.467-5.013-24.853-2.56-33.76 6.4-8.853 8.8-11.36 22.187-6.4 33.707l16 63.093 35.2 140.8c10.133 34.453 28 66.133 52.267 92.48l461.759 461.652c41.067 44.267 102.933 62.4 161.44 47.467 58.453-14.827 104.106-60.48 119.040-118.933s-3.2-120.426-47.467-161.6l0.053 0.053zM266.127 285.564c-10.667-12.8-18.88-27.413-24.373-43.2l-21.493-86.026 86.026 21.6c15.68 5.493 30.293 13.76 43.093 24.373l363.946 363.839-1.867 1.867-81.546 81.44-363.786-363.893zM811.192 747.163c-23.040 22.933-60.267 22.933-83.306 0l-22.933-23.040 83.306-83.253 22.933 22.933c23.040 23.093 22.933 60.427 0 83.466v-0.107z" />
<glyph unicode="&#xe91a;" glyph-name="plans" d="M896 127.968h-6.528c-30.656-90.688-187.392-159.936-377.472-159.936s-346.88 69.248-377.536 159.936h-6.464v576h6.464c-3.584 10.432-6.464 21.056-6.464 32 0 106.112 171.904 192 384 192 212.032 0 384-85.888 384-192 0-10.944-2.944-21.568-6.528-32h6.528v-576zM512 864.096c-176.768 0-320-57.344-320-128.064 0-70.656 143.232-128 320-128s320 57.344 320 128c0 70.72-143.232 128.064-320 128.064zM832 630.176c-68.736-51.84-186.24-86.080-320-86.080s-251.264 34.24-320 86.080v-86.144c0-70.656 143.232-128 320-128 176.704 0 319.936 57.344 320 128v0 86.144zM832 438.176c-68.736-51.84-186.24-86.080-320-86.080s-251.264 34.24-320 86.080v-86.144c0-70.656 143.232-128 320-128 176.704 0 319.936 57.344 320 128v0 86.144zM512 160.032c-133.76 0-251.264 34.24-320 86.080v-86.080c0-70.72 143.232-128 320-128 176.704 0 319.936 57.344 320 128v0 86.080c-68.736-51.776-186.24-86.080-320-86.080z" />
<glyph unicode="&#xe91b;" glyph-name="print" d="M778.667 21.333h-533.333c-90.667 0-160 69.333-160 160v213.333c0 90.667 69.333 160 160 160v266.667c0 32 21.333 53.333 53.333 53.333h426.667c32 0 53.333-21.333 53.333-53.333v-266.667c90.667 0 160-69.333 160-160v-213.333c0-90.667-69.333-160-160-160zM565.333 128h213.333c32 0 53.333 21.333 53.333 53.333v213.333c0 32-21.333 53.333-53.333 53.333v-106.667c0-32-21.333-53.333-53.333-53.333h-426.667c-32 0-53.333 21.333-53.333 53.333v106.667c-32 0-53.333-21.333-53.333-53.333v-213.333c0-32 21.333-53.333 53.333-53.333h213.333v53.333c0 32 21.333 53.333 53.333 53.333s53.333-21.333 53.333-53.333v-53.333zM352 394.667h320v373.333h-320v-373.333zM565.333 448h-106.667c-32 0-53.333 21.333-53.333 53.333s21.333 53.333 53.333 53.333h106.667c32 0 53.333-21.333 53.333-53.333s-21.333-53.333-53.333-53.333zM565.333 608h-106.667c-32 0-53.333 21.333-53.333 53.333s21.333 53.333 53.333 53.333h106.667c32 0 53.333-21.333 53.333-53.333s-21.333-53.333-53.333-53.333z" />
<glyph unicode="&#xe91c;" glyph-name="products" d="M950.286 488.114l-154.514 71.314 148.571 59.429c53.486 23.771 53.486 83.2 0 106.971l-404.114 178.286c-17.829 5.943-41.6 11.886-65.371 0l-398.171-172.343c-53.486-23.771-53.486-83.2 0-106.971l404.114-172.343c17.829-5.943 41.6-5.943 59.429 0l95.086 35.657 124.8-53.486-249.6-101.029-249.6 106.971 124.8 53.486-154.514 65.371-154.514-65.371c-53.486-23.771-53.486-83.2 0-106.971l404.114-172.343c17.829-5.943 41.6-5.943 59.429 0l95.086 35.657 124.8-53.486-249.6-101.029-249.6 106.971 124.8 53.486-154.514 65.371-154.514-65.371c-53.486-23.771-53.486-83.2 0-106.971l404.114-172.343c17.829-5.943 41.6-5.943 59.429 0l404.114 166.4c53.486 23.771 53.486 83.2 0 106.971l-154.514 71.314 154.514 59.429c53.486 17.829 53.486 83.2 5.943 106.971zM260.914 678.286l249.6 106.971 249.6-106.971-249.6-106.971-249.6 106.971z" />
<glyph unicode="&#xe91d;" glyph-name="profile" d="M512-64c-282.752 0-512 229.248-512 512s229.248 512 512 512c282.752 0 512-229.248 512-512s-229.248-512-512-512zM512 0c98.688 0 189.184 32.96 263.232 87.040-13.056 22.144-36.544 57.28-72.512 93.248-26.624 26.624-58.944 53.248-87.68 75.52-30.976-19.648-65.664-31.872-102.976-31.872-37.376 0-72.064 12.224-103.040 31.872-28.736-22.272-61.056-48.896-87.68-75.52-35.968-36.032-59.52-71.104-72.576-93.248 74.048-54.080 164.48-87.040 263.232-87.040zM672 495.936c0 114.88-71.68 208-160 208-88.384 0-160-93.12-160-208s71.616-208 160-208c88.32 0 160 93.12 160 208zM512 896c-247.424 0-448-200.576-448-448 0-126.528 52.864-240.256 137.28-321.728 11.712 20.992 35.008 57.664 73.152 95.808 26.048 26.048 57.664 52.352 86.208 74.624-44.352 49.664-72.576 120.192-72.576 199.232 0 150.272 100.288 272 224 272s224-121.728 224-272c0-79.040-28.224-149.568-72.576-199.232 28.48-22.272 60.096-48.576 86.208-74.624 38.080-38.144 61.376-74.816 73.152-95.808 84.352 81.472 137.28 195.264 137.28 321.728-0.128 247.424-200.704 448-448.128 448z" />
<glyph unicode="&#xe91e;" glyph-name="rmb-bold" d="M832.78 876.215h-118.243l-132.95-239.556c-35.456-64.92-57.143-108.074-65.061-129.46h-2.263c-23.39 52.006-89.389 175.008-198.012 369.017h-125.030l232.522-390.594h-190.657v-86.305h223.47v-118.95h-223.47v-87.413h223.47v-173.167h110.885v173.167h215.55v87.413h-215.549v118.95h215.55v86.305h-184.998l234.786 390.594z" />
<glyph unicode="&#xe91f;" glyph-name="rmb" d="M229.376 813.568l208.896-367.616h-151.552v-51.2h180.224v-100.352h-180.224v-51.2h180.224v-160.768h90.112v160.768h181.248v51.2h-181.248v100.352h181.248v51.2h-152.576l208.896 367.616h-101.376l-181.248-335.872-181.248 335.872z" />
<glyph unicode="&#xe920;" glyph-name="save" d="M221.867 700.142v-504.284c0-21.104 16.905-37.991 37.991-37.991h504.284c21.104 0 37.991 16.905 37.991 37.991v504.284c0 21.104-16.905 37.991-37.991 37.991h-504.284c-21.104 0-37.991-16.905-37.991-37.991zM113.778 700.142c0 80.678 65.176 146.080 146.080 146.080h504.284c80.678 0 146.080-65.176 146.080-146.080v-504.284c0-80.678-65.176-146.080-146.080-146.080h-504.284c-80.678 0-146.080 65.176-146.080 146.080v504.284zM373.57 612.978h276.859v125.156h-276.859v-125.156zM265.481 846.222h493.037v-243.521c0-54.020-43.754-97.812-97.408-97.812h-298.221c-53.797 0-97.408 43.23-97.408 97.812v243.521z" />
<glyph unicode="&#xe921;" glyph-name="search" d="M655.195 706.364c-110.91 110.91-290.649 110.91-401.559 0s-110.91-290.649 0-401.559c110.91-110.91 290.649-110.91 401.559 0s110.91 290.649 0 401.559zM950.5 9.5c-22.205-22.148-58.152-22.148-80.357 0l-178.83 178.887c-155.717-116.418-376.514-105.401-517.977 36.118-155.263 155.206-155.263 406.897 0 562.159 155.206 155.263 406.954 155.263 562.159 0 141.519-141.463 152.537-362.26 36.118-517.977l178.887-178.887c22.148-22.148 22.148-58.096 0-80.3z" />
<glyph unicode="&#xe922;" glyph-name="ticket" d="M928 96.224h-287.616l-128.384-128.384-128.384 128.384h-287.616c-52.992 0-96 42.944-96 96v639.936c0 53.056 43.008 96 96 96h832c52.992 0 96-43.008 96-96v-639.936c0-52.992-43.008-96-96-96zM960 832.224c0 17.664-14.336 32-32 32h-832c-17.664 0-32-14.336-32-32v-640c0-17.728 14.336-32.064 32-32.064h319.616l96.384-96.32 96.32 96.32h319.68c17.664 0 32 14.336 32 32.064v640zM800 608.224h-576c-17.664 0-32 14.336-32 32 0 17.6 14.336 32 32 32h576c17.6 0 32-14.4 32-32s-14.4-32-32-32zM352 480.224h320c17.6 0 32-14.336 32-32s-14.4-32-32-32h-320c-17.664 0-32 14.336-32 32s14.336 32 32 32z" />
<glyph unicode="&#xe923;" glyph-name="trash" d="M885.333 661.333v-533.333c0-58.933-47.733-106.667-106.667-106.667h-533.333c-58.933 0-106.667 47.733-106.667 106.667v533.333c-29.44 0-53.333 23.893-53.333 53.333s23.893 53.333 53.333 53.333h266.667c0 58.933 47.733 106.667 106.667 106.667s106.667-47.733 106.667-106.667h266.667c29.44 0 53.333-23.893 53.333-53.333s-23.893-53.333-53.333-53.333zM778.667 661.333h-533.333v-533.333h533.333v533.333zM352 608c29.44 0 53.333-23.893 53.333-53.333v-320c0-29.44-23.893-53.333-53.333-53.333s-53.333 23.893-53.333 53.333v320c0 29.44 23.893 53.333 53.333 53.333zM512 608c29.44 0 53.333-23.893 53.333-53.333v-320c0-29.44-23.893-53.333-53.333-53.333s-53.333 23.893-53.333 53.333v320c0 29.44 23.893 53.333 53.333 53.333zM672 608c29.44 0 53.333-23.893 53.333-53.333v-320c0-29.44-23.893-53.333-53.333-53.333s-53.333 23.893-53.333 53.333v320c0 29.44 23.893 53.333 53.333 53.333z" />
<glyph unicode="&#xe924;" glyph-name="truck" d="M753.102 704h-312.213v142.222h-355.556v-640h355.556v426.667h256.676l32.782-131.129 137.209-68.622v-155.804h-126.436c-36.13 60.89-111.764 85.616-176.885 57.826s-99.6-99.505-80.636-167.72c18.964-68.216 85.509-111.846 155.629-102.039s122.141 70.021 121.661 140.822h177.778v270.862l-147.271 73.6-38.293 153.316zM369.778 277.333h-213.333v497.778h213.333v-497.778zM618.667 135.111c-39.274 0-71.111 31.838-71.111 71.111s31.838 71.111 71.111 71.111c39.274 0 71.111-31.838 71.111-71.111s-31.838-71.111-71.111-71.111zM547.556 597.333v-142.222h142.222v71.111h-71.111v71.111z" />
<glyph unicode="&#xe925;" glyph-name="vehicle" d="M987.429 519.314c0 5.943 0 5.943-5.943 11.886l-118.857 297.143c-5.943 23.771-29.714 35.657-53.486 35.657h-178.286c0 35.657-23.771 59.429-59.429 59.429h-475.429c-35.657 0-59.429-23.771-59.429-59.429v-416c0-35.657 23.771-59.429 59.429-59.429s59.429 23.771 59.429 59.429v356.571h356.571v-297.143c0-35.657 23.771-59.429 59.429-59.429h297.143v-237.714h-11.886c-23.771 71.314-89.143 118.857-166.4 118.857s-142.629-47.543-166.4-118.857h-142.629c-23.771 71.314-89.143 118.857-166.4 118.857-101.029 0-178.286-77.257-178.286-178.286s77.257-178.286 178.286-178.286c77.257 0 142.629 53.486 166.4 118.857h142.629c23.771-71.314 89.143-118.857 166.4-118.857s142.629 53.486 166.4 118.857h71.314c35.657 0 59.429 23.771 59.429 59.429v368.457zM630.857 566.857v178.286h136.686l71.314-178.286h-208zM214.857 91.429c-35.657 0-59.429 23.771-59.429 59.429s23.771 59.429 59.429 59.429c35.657 0 59.429-23.771 59.429-59.429s-23.771-59.429-59.429-59.429zM690.286 91.429c-35.657 0-59.429 23.771-59.429 59.429s23.771 59.429 59.429 59.429c35.657 0 59.429-23.771 59.429-59.429s-23.771-59.429-59.429-59.429z" />
<glyph unicode="&#xe926;" glyph-name="video" d="M863.696 767.696v-731.25h-827.679v731.25h827.679zM92.268 711.446v-618.75h715.179v618.75h-715.179zM381.554 295.238l185.585 111.351-185.585 111.351v-222.702zM325.304 538.751c0 37.811 34.963 57.56 67.362 38.12l218.841-131.304c31.884-19.131 31.869-58.833 0-77.954l-218.841-131.304c-32.415-19.449-67.362 0.408-67.362 38.12v264.323zM132.446 711.446v152.679h827.679v-731.25h-152.679v578.571h-675zM903.875 807.875h-715.179v-40.179h675v-578.571h40.179v618.75z" />
<glyph unicode="&#xe927;" glyph-name="duplicate" d="M804.571 846.222h-438.857c-29.257 0-48.762-19.505-48.762-48.762v-536.381c0-29.257 19.505-48.762 48.762-48.762h438.857c29.257 0 48.762 19.505 48.762 48.762v536.381c0 29.257-19.505 48.762-48.762 48.762zM755.81 309.841h-341.333v438.857h341.333v-438.857zM609.524 163.556h-341.333v438.857c0 29.257-19.505 48.762-48.762 48.762s-48.762-19.505-48.762-48.762v-487.619c0-29.257 19.505-48.762 48.762-48.762h390.095c29.257 0 48.762 19.505 48.762 48.762s-19.505 48.762-48.762 48.762zM512 602.413h146.286c29.257 0 48.762 19.505 48.762 48.762s-19.505 48.762-48.762 48.762h-146.286c-29.257 0-48.762-19.505-48.762-48.762s19.505-48.762 48.762-48.762zM512 456.127h146.286c29.257 0 48.762 19.505 48.762 48.762s-19.505 48.762-48.762 48.762h-146.286c-29.257 0-48.762-19.505-48.762-48.762s19.505-48.762 48.762-48.762z" />
<glyph unicode="&#xe928;" glyph-name="percentage" d="M124.416 643.584c0 25.259 4.608 48.811 13.824 70.656s21.845 40.789 37.888 56.832c16.043 16.043 34.987 28.672 56.832 37.888s45.397 13.824 70.656 13.824c25.259 0 48.811-4.608 70.656-13.824s40.789-21.845 56.832-37.888c16.043-16.043 28.672-34.987 37.888-56.832s13.824-45.397 13.824-70.656c0-25.259-4.608-48.811-13.824-70.656s-21.845-40.789-37.888-56.832c-16.043-16.043-34.987-28.672-56.832-37.888s-45.397-13.824-70.656-13.824c-25.259 0-48.811 4.608-70.656 13.824s-40.789 21.845-56.832 37.888c-16.043 16.043-28.672 34.987-37.888 56.832s-13.824 45.397-13.824 70.656zM198.144 643.584c0-14.336 2.901-27.819 8.704-40.448s13.483-23.893 23.040-33.792c9.557-9.899 20.651-17.579 33.28-23.040s26.112-8.192 40.448-8.192c14.336 0 27.819 2.731 40.448 8.192s23.723 13.141 33.28 23.040c9.557 9.899 17.237 21.163 23.040 33.792s8.704 26.112 8.704 40.448c0 14.336-2.901 27.819-8.704 40.448s-13.483 23.893-23.040 33.792c-9.557 9.899-20.651 17.579-33.28 23.040s-26.112 8.192-40.448 8.192c-14.336 0-27.819-2.731-40.448-8.192s-23.723-13.141-33.28-23.040c-9.557-9.899-17.237-21.163-23.040-33.792s-8.704-26.112-8.704-40.448zM541.184 252.416c0 25.259 4.608 48.811 13.824 70.656s21.845 40.789 37.888 56.832c16.043 16.043 34.987 28.672 56.832 37.888s45.397 13.824 70.656 13.824c25.259 0 48.811-4.608 70.656-13.824s40.789-21.845 56.832-37.888c16.043-16.043 28.672-34.987 37.888-56.832s13.824-45.397 13.824-70.656c0-25.259-4.608-48.811-13.824-70.656s-21.845-40.789-37.888-56.832c-16.043-16.043-34.987-28.672-56.832-37.888s-45.397-13.824-70.656-13.824c-25.259 0-48.811 4.608-70.656 13.824s-40.789 21.845-56.832 37.888c-16.043 16.043-28.672 34.987-37.888 56.832s-13.824 45.397-13.824 70.656zM614.912 252.416c0-14.336 2.901-27.819 8.704-40.448s13.483-23.893 23.040-33.792c9.557-9.899 20.651-17.579 33.28-23.040s26.112-8.192 40.448-8.192c14.336 0 27.819 2.731 40.448 8.192s23.723 13.141 33.28 23.040c9.557 9.899 17.237 21.163 23.040 33.792s8.704 26.112 8.704 40.448c0 14.336-2.901 27.819-8.704 40.448s-13.483 23.893-23.040 33.792c-9.557 9.899-20.651 17.579-33.28 23.040s-26.112 8.192-40.448 8.192c-14.336 0-27.819-2.731-40.448-8.192s-23.723-13.141-33.28-23.040c-9.557-9.899-17.237-21.163-23.040-33.792s-8.704-26.112-8.704-40.448zM714.24 843.264l56.32-32.768-454.656-757.76-56.32 32.768 454.656 757.76z" />
</font>
</defs>
</svg>
